<?xml version="1.0" encoding="UTF-8" standalone="no"?>
<svg width="32px" height="32px" viewBox="0 0 32 32" version="1.1" xmlns="http://www.w3.org/2000/svg" xmlns:xlink="http://www.w3.org/1999/xlink">
    <!-- Generator: Sketch 44.1 (41455) - http://www.bohemiancoding.com/sketch -->
    <title>Arrow 29</title>
    <desc>Created with Sketch.</desc>
    <defs></defs>
    <g id="Page-2-Copy" stroke="none" stroke-width="1" fill="none" fill-rule="evenodd">
        <g id="121" stroke="#979797" transform="translate(16.000000, 16.000000) scale(-1, 1) rotate(-270.000000) translate(-16.000000, -16.000000) " fill-rule="nonzero">
            <path d="M11.636039,15.2928932 C11.2455147,15.6834175 11.2455147,16.3165825 11.636039,16.7071068 L17.2928932,22.363961 C17.6834175,22.7544853 18.3165825,22.7544853 18.7071068,22.363961 C19.0976311,21.9734367 19.0976311,21.3402718 18.7071068,20.9497475 L13.0502525,15.2928932 L13.0502525,16.7071068 L18.7071068,11.0502525 C19.0976311,10.6597282 19.0976311,10.0265633 18.7071068,9.63603897 C18.3165825,9.24551468 17.6834175,9.24551468 17.2928932,9.63603897 L11.636039,15.2928932 L11.636039,15.2928932 Z" id="Rectangle-363" stroke="none" fill="#2A2630"></path>
            <path d="M0,2.00174332 C0,0.889261723 0.89621101,-1.13686838e-13 2.00174332,-1.13686838e-13 L29.9982567,-1.13686838e-13 C31.1107383,-1.13686838e-13 32,0.89621101 32,2.00174332 L32,29.9982567 C32,31.1107383 31.103789,32 29.9982567,32 L2.00174332,32 C0.889261723,32 0,31.103789 0,29.9982567 L0,2.00174332 Z M29.9982567,2 C29.9982567,2 2,1.99730764 2,2.00174332 C2,2.00174332 1.99730764,30 2.00174332,30 C2.00174332,30 30,30.0026924 30,29.9982567 C30,29.9982567 30.0026924,2 29.9982567,2 Z" id="Rectangle-577" stroke="none" fill="#95909E"></path>
        </g>
    </g>
</svg>