<?xml version="1.0" encoding="utf-8"?>
<!-- Generator: Adobe Illustrator 25.2.1, SVG Export Plug-In . SVG Version: 6.00 Build 0)  -->
<svg version="1.1" id="Calque_1" xmlns="http://www.w3.org/2000/svg" xmlns:xlink="http://www.w3.org/1999/xlink" x="0px" y="0px"
	 viewBox="0 0 595.28 841.89" style="enable-background:new 0 0 595.28 841.89;" xml:space="preserve">
<style type="text/css">
	.st0{fill:url(#SVGID_1_);stroke:#000000;stroke-miterlimit:10;}
	.st1{fill:#FFFFFF;stroke:#000000;stroke-width:0.5;stroke-miterlimit:10;}
	.st2{fill:#010202;stroke:#000000;stroke-width:0.5;stroke-miterlimit:10;}
	.st3{fill:#EF7C59;stroke:#000000;stroke-width:0.5;stroke-miterlimit:10;}
</style>
<g>
	<radialGradient id="SVGID_1_" cx="291.766" cy="402.1043" r="121.0327" gradientUnits="userSpaceOnUse">
		<stop  offset="0.0173" style="stop-color:#009FE3"/>
		<stop  offset="0.5089" style="stop-color:#009FE3"/>
		<stop  offset="0.7307" style="stop-color:#009EE3"/>
		<stop  offset="0.8106" style="stop-color:#009CE1"/>
		<stop  offset="0.8676" style="stop-color:#0099DE"/>
		<stop  offset="0.9136" style="stop-color:#0094D9"/>
		<stop  offset="0.9531" style="stop-color:#008DD1"/>
		<stop  offset="0.9874" style="stop-color:#0083C8"/>
		<stop  offset="1" style="stop-color:#007EC4"/>
	</radialGradient>
	<path class="st0" d="M379,398.03c-4.26-4.82-8.99-9.26-13.6-13.79c-4.21-4.13-11.27-12.36-15.28-16.59
		c-12.3-12.99-16.04-19-19.46-23.98c-8.6-12.55-14.26-21.42-20.94-34.72c-3.56-7.09-7.51-14.01-10.74-21.26
		c-1.42-3.19-2.59-6.48-3.66-9.8c-0.51-1.58-0.95-3.18-1.36-4.79c-0.21-0.8-0.4-1.61-0.6-2.42c-0.12-0.5-0.19-1.52-0.65-1.84
		c-0.28-0.2-0.69-0.19-0.98,0.01c-0.57,0.41-0.5,1.43-0.63,2.05c-0.22,1.01-0.47,2-0.78,2.99c-0.78,2.44-1.83,4.78-2.81,7.14
		c-1.83,4.39-3.88,8.69-6.04,12.93c-3.7,7.26-7.68,14.38-11.41,21.62c-6.58,12.78-13.4,23.01-27.4,40.51
		c-4.99,6.24-13.51,16.68-19.95,23.64c-6.49,7-14.12,13.3-20.13,20.59c-6.09,7.38-10.77,15.51-13.82,24.04
		c-2.81,7.87-4.22,16.05-4.22,24.24c0,48.01,48.01,86.93,107.23,86.93S399,496.6,399,448.59C399,430.53,391.98,412.71,379,398.03z
		 M234.57,442.83c0-10.93,9.02-19.79,20.16-19.79c11.13,0,20.16,8.86,20.16,19.79s-9.02,19.79-20.16,19.79
		C243.6,462.62,234.57,453.76,234.57,442.83z M290.23,512.98c-21.36,0-38.68-14.05-38.68-26.62s16.72,16.32,38.09,16.32
		c21.36,0,39.28-28.9,39.28-16.32S311.6,512.98,290.23,512.98z M332.09,462.62c-11.13,0-20.16-8.86-20.16-19.79
		s9.02-19.79,20.16-19.79c11.13,0,20.16,8.86,20.16,19.79S343.23,462.62,332.09,462.62z"/>
	<path class="st1" d="M274.89,442.83c0-10.93-9.02-19.79-20.16-19.79c-11.13,0-20.16,8.86-20.16,19.79s9.02,19.79,20.16,19.79
		C265.86,462.62,274.89,453.76,274.89,442.83z M250.14,442.83c0-2.49,2.06-4.51,4.6-4.51c2.54,0,4.6,2.02,4.6,4.51
		c0,2.49-2.06,4.51-4.6,4.51C252.19,447.35,250.14,445.33,250.14,442.83z"/>
	<path class="st1" d="M332.09,423.04c-11.13,0-20.16,8.86-20.16,19.79s9.02,19.79,20.16,19.79c11.13,0,20.16-8.86,20.16-19.79
		S343.23,423.04,332.09,423.04z M332.09,447.35c-2.54,0-4.6-2.02-4.6-4.51c0-2.49,2.06-4.51,4.6-4.51c2.54,0,4.6,2.02,4.6,4.51
		C336.69,445.33,334.63,447.35,332.09,447.35z"/>
	<ellipse class="st2" cx="254.73" cy="442.83" rx="4.6" ry="4.51"/>
	<ellipse class="st2" cx="332.09" cy="442.83" rx="4.6" ry="4.51"/>
	<path class="st3" d="M289.64,502.68c-21.36,0-38.09-28.9-38.09-16.32c0,12.57,17.32,26.62,38.68,26.62
		c21.36,0,38.68-14.05,38.68-26.62C328.91,473.78,311,502.68,289.64,502.68z"/>
</g>
</svg>
